<?xml version="1.0" standalone="no"?>
<!DOCTYPE svg PUBLIC "-//W3C//DTD SVG 20010904//EN"
		"http://www.w3.org/TR/2001/REC-SVG-20010904/DTD/svg10.dtd">
<svg version="1.0" xmlns="http://www.w3.org/2000/svg"
     width="700.000000pt" height="700.000000pt" viewBox="0 0 700.000000 700.000000"
     preserveAspectRatio="xMidYMid meet">
	<metadata>
		Created by potrace 1.14, written by Peter Selinger 2001-2017
	</metadata>
	<g transform="translate(0.000000,700.000000) scale(0.100000,-0.100000)"
	   fill="#000000" stroke="none">
		<path d="M3945 6988 c-116 -26 -100 -11 -1013 -922 -474 -474 -877 -882 -893
-909 -89 -137 -91 -329 -4 -467 15 -25 96 -113 179 -195 152 -152 197 -184
300 -215 43 -14 130 -17 193 -7 66 10 168 64 224 118 28 27 56 48 60 47 5 -2
335 -329 734 -727 l725 -724 -39 -37 c-69 -67 -123 -160 -136 -235 -10 -54 -7
-162 6 -205 28 -95 65 -145 214 -296 83 -83 169 -163 192 -177 93 -59 233 -82
339 -56 118 29 104 16 1015 926 567 566 876 882 897 916 56 93 74 207 51 319
-20 98 -69 167 -232 329 -127 127 -163 156 -223 185 -89 43 -167 54 -260 38
-107 -19 -172 -54 -262 -142 l-32 -32 -368 368 c-202 202 -530 530 -729 729
l-362 362 50 53 c150 156 173 384 57 555 -36 54 -280 296 -337 336 -70 48
-137 69 -226 72 -44 1 -98 -2 -120 -7z"/>
		<path d="M2697 3318 l-398 -399 -42 33 c-152 123 -328 142 -502 56 -56 -28
-1651 -1621 -1693 -1691 -46 -78 -62 -145 -58 -245 3 -74 8 -98 38 -162 33
-72 52 -93 413 -453 356 -356 382 -380 453 -414 66 -32 87 -37 163 -39 102 -4
168 12 246 58 34 21 323 303 861 842 926 928 872 863 878 1053 4 119 -25 205
-102 299 l-36 44 396 395 c218 218 396 400 396 404 0 8 -569 582 -601 607 -11
8 -96 -71 -412 -388z"/>
	</g>
</svg>
